<mxfile host="app.diagrams.net" agent="Mozilla/5.0 (Windows NT 10.0; Win64; x64) AppleWebKit/537.36 (KHTML, like Gecko) Chrome/133.0.0.0 Safari/537.36" version="26.0.13">
  <diagram name="Page-1" id="AP9p-YQlpmt1HkyFO67m">
    <mxGraphModel dx="2391" dy="1089" grid="1" gridSize="10" guides="1" tooltips="1" connect="1" arrows="1" fold="1" page="1" pageScale="1" pageWidth="827" pageHeight="1169" math="0" shadow="0">
      <root>
        <mxCell id="0" />
        <mxCell id="1" parent="0" />
        <mxCell id="D0DyJ0n4fdYxfHIiVz5X-1" value="&lt;span style=&quot;font-size: 16px;&quot;&gt;Ligne d&#39;assemblage / Chaine de production&lt;/span&gt;" style="rounded=0;whiteSpace=wrap;html=1;" parent="1" vertex="1">
          <mxGeometry x="84" y="530" width="660" height="120" as="geometry" />
        </mxCell>
        <mxCell id="D0DyJ0n4fdYxfHIiVz5X-3" value="" style="image;aspect=fixed;html=1;points=[];align=center;fontSize=12;image=img/lib/azure2/other/Defender_Industrial_Robot.svg;" parent="1" vertex="1">
          <mxGeometry x="364" y="350" width="120.19" height="160" as="geometry" />
        </mxCell>
        <mxCell id="D0DyJ0n4fdYxfHIiVz5X-4" value="" style="whiteSpace=wrap;html=1;aspect=fixed;fillColor=#f5f5f5;fontColor=#333333;strokeColor=#666666;" parent="1" vertex="1">
          <mxGeometry x="170" y="280" width="140" height="140" as="geometry" />
        </mxCell>
        <mxCell id="D0DyJ0n4fdYxfHIiVz5X-5" value="" style="whiteSpace=wrap;html=1;aspect=fixed;fillColor=#f5f5f5;fontColor=#333333;strokeColor=#666666;" parent="1" vertex="1">
          <mxGeometry x="540" y="280" width="140" height="140" as="geometry" />
        </mxCell>
        <mxCell id="D0DyJ0n4fdYxfHIiVz5X-6" value="" style="whiteSpace=wrap;html=1;aspect=fixed;fillColor=#dae8fc;strokeColor=#6c8ebf;" parent="1" vertex="1">
          <mxGeometry x="360" y="150" width="140" height="140" as="geometry" />
        </mxCell>
        <mxCell id="D0DyJ0n4fdYxfHIiVz5X-7" value="&lt;font style=&quot;font-size: 14px;&quot;&gt;Encolleuse N°1&lt;/font&gt;" style="text;html=1;align=center;verticalAlign=middle;whiteSpace=wrap;rounded=0;" parent="1" vertex="1">
          <mxGeometry x="100" y="280" width="60" height="30" as="geometry" />
        </mxCell>
        <mxCell id="D0DyJ0n4fdYxfHIiVz5X-10" value="&lt;font style=&quot;font-size: 14px;&quot;&gt;Encolleuse N°2&lt;/font&gt;" style="text;html=1;align=center;verticalAlign=middle;whiteSpace=wrap;rounded=0;" parent="1" vertex="1">
          <mxGeometry x="690" y="280" width="60" height="30" as="geometry" />
        </mxCell>
        <mxCell id="D0DyJ0n4fdYxfHIiVz5X-11" value="&lt;font style=&quot;font-size: 14px;&quot;&gt;Stock de capots&lt;/font&gt;" style="text;html=1;align=center;verticalAlign=middle;whiteSpace=wrap;rounded=0;" parent="1" vertex="1">
          <mxGeometry x="395" y="110" width="70" height="40" as="geometry" />
        </mxCell>
        <mxCell id="D0DyJ0n4fdYxfHIiVz5X-14" value="" style="rounded=0;whiteSpace=wrap;html=1;rotation=-90;fillColor=#000000;strokeColor=#d6b656;" parent="1" vertex="1">
          <mxGeometry x="364" y="210" width="50" height="30" as="geometry" />
        </mxCell>
        <mxCell id="D0DyJ0n4fdYxfHIiVz5X-15" value="" style="rounded=0;whiteSpace=wrap;html=1;rotation=-90;fillColor=#000000;strokeColor=#d6b656;" parent="1" vertex="1">
          <mxGeometry x="440" y="210" width="50" height="30" as="geometry" />
        </mxCell>
        <mxCell id="D0DyJ0n4fdYxfHIiVz5X-17" value="" style="shape=process;whiteSpace=wrap;html=1;backgroundOutline=1;rotation=-90;fillColor=#828282;strokeColor=#666666;fontColor=#333333;strokeWidth=4;" parent="1" vertex="1">
          <mxGeometry x="540" y="322.5" width="90" height="55" as="geometry" />
        </mxCell>
        <mxCell id="D0DyJ0n4fdYxfHIiVz5X-18" value="" style="shape=process;whiteSpace=wrap;html=1;backgroundOutline=1;rotation=-90;fillColor=#828282;strokeColor=#666666;fontColor=#333333;strokeWidth=4;" parent="1" vertex="1">
          <mxGeometry x="220" y="322.5" width="90" height="55" as="geometry" />
        </mxCell>
        <mxCell id="D0DyJ0n4fdYxfHIiVz5X-19" value="&lt;font style=&quot;font-size: 14px;&quot;&gt;Bras robotisé&amp;nbsp;&lt;/font&gt;&lt;div&gt;&lt;span style=&quot;font-size: 14px;&quot;&gt;UR5&lt;/span&gt;&lt;/div&gt;" style="text;html=1;align=center;verticalAlign=middle;whiteSpace=wrap;rounded=0;" parent="1" vertex="1">
          <mxGeometry x="490" y="480" width="89.81" height="30" as="geometry" />
        </mxCell>
        <mxCell id="ZIVuf7WgYAzusMMb-A10-6" value="" style="group" vertex="1" connectable="0" parent="1">
          <mxGeometry x="318.02398282201784" y="738.9339828220179" width="212.13203435596427" height="212.13203435596415" as="geometry" />
        </mxCell>
        <mxCell id="ZIVuf7WgYAzusMMb-A10-4" value="" style="verticalLabelPosition=bottom;html=1;verticalAlign=top;align=center;shape=mxgraph.floorplan.desk_corner;rotation=45;" vertex="1" parent="ZIVuf7WgYAzusMMb-A10-6">
          <mxGeometry x="31.066017177982133" y="31.066017177982076" width="150" height="150" as="geometry" />
        </mxCell>
        <mxCell id="ZIVuf7WgYAzusMMb-A10-5" value="&lt;span style=&quot;font-size: 16px;&quot;&gt;Poste de supervision&lt;/span&gt;" style="text;html=1;align=center;verticalAlign=middle;whiteSpace=wrap;rounded=0;" vertex="1" parent="ZIVuf7WgYAzusMMb-A10-6">
          <mxGeometry x="3.5660171779821326" y="151.06601717798208" width="205" height="30" as="geometry" />
        </mxCell>
        <mxCell id="ZIVuf7WgYAzusMMb-A10-7" value="" style="group" vertex="1" connectable="0" parent="1">
          <mxGeometry x="307.00398282201786" y="700.003982822018" width="212.13203435596427" height="212.13203435596415" as="geometry" />
        </mxCell>
        <mxCell id="ZIVuf7WgYAzusMMb-A10-8" value="" style="verticalLabelPosition=bottom;html=1;verticalAlign=top;align=center;shape=mxgraph.floorplan.desk_corner;rotation=45;" vertex="1" parent="ZIVuf7WgYAzusMMb-A10-7">
          <mxGeometry x="31.066017177982133" y="31.066017177982076" width="150" height="150" as="geometry" />
        </mxCell>
        <mxCell id="ZIVuf7WgYAzusMMb-A10-9" value="&lt;span style=&quot;font-size: 16px;&quot;&gt;Poste de supervision&lt;/span&gt;" style="text;html=1;align=center;verticalAlign=middle;whiteSpace=wrap;rounded=0;" vertex="1" parent="ZIVuf7WgYAzusMMb-A10-7">
          <mxGeometry x="3.5660171779821326" y="151.06601717798208" width="205" height="30" as="geometry" />
        </mxCell>
      </root>
    </mxGraphModel>
  </diagram>
</mxfile>
